# xmcd
#
# Track frame offsets: 
#        182
#        21320
#        43980
#        62247
#        81922
#        102500
#        122702
#        136957
#        157972
#        180035
#
# Disc length: 2681 seconds
#
# Revision: 2
# Processed by: cddbd v1.5.2PL0 Copyright (c) Steve Scherf et al.
# Submitted via: ExactAudioCopy v1.0b6
#
DISCID=820a770a
DTITLE=Scripture Memory Songs - Scripture Memory Songs - Everlasting H
DTITLE=ope (1994)
DYEAR=1994
DGENRE=Scripture Memory Songs
TTITLE0=Rita Baloche - Hope Does Not Disappoint (Rom. 5:5, 8:24-25)
TTITLE1=Ron Hemby - Just As He Is Pure (1 John 3:2-3 - Col. 3:4)
TTITLE2=Austin Cunningham - My Soul Waits (Ps. 130:1-2, 5-6)
TTITLE3=Melodie Crittenden - I Hope In Your Word (Ps. 119:49-50, 147)
TTITLE4=Greg Barnhill - Looking For The Blessed Hope (Titus2:11-13,1 P
TTITLE4=et.1:21)
TTITLE5=Lenny LeBlanc - If We Believe (1 Thess. 4:13-14, 18)
TTITLE6=Waylond Patton - I Will Sing (Ps. 89:1)
TTITLE7=Chris Rodriguez - Firm And Steadfast (1 Pet. 5:10-11)
TTITLE8=Cindy Walker - Destined (Eph. 1:5-6, 12)
TTITLE9=Peter Penrose - Everlasting Light (Ps. 33:11-12, Is. 60:20)
EXTD=Integrity Music
EXTT0=
EXTT1=
EXTT2=
EXTT3=
EXTT4=
EXTT5=
EXTT6=
EXTT7=
EXTT8=
EXTT9=
PLAYORDER=
